<svg id="Capa_1" enable-background="new 0 0 512 512" height="512" viewBox="0 0 512 512" width="512" xmlns="http://www.w3.org/2000/svg"><path d="m436.49.429-409.071 136.556c-4.345 1.45-6.691 6.148-5.241 10.493l18.383 55.067 416.938-139.182c4.345-1.45 6.691-6.148 5.241-10.493l-15.757-47.2c-1.45-4.345-6.148-6.691-10.493-5.241z" fill="#eceaec"/><path d="m462.74 52.87-15.756-47.2-57.694 10.516-62.934 21.009-42.689 29.472-20.245-8.464-62.935 21.009-36.487 21.455-26.447-.446-62.933 21.008-28.87 21.271-5.189 60.045 55.068-18.383 37.747-22.662 25.187 1.654 62.934-21.008 41.836-26.146 21.097 5.137 62.934-21.009 40.575-25.724 22.36 4.715 47.2-15.756c4.345-1.45 6.691-6.148 5.241-10.493z" fill="#eceaec"/><g fill="#5d5360"><path d="m137.554 100.22-41.926 83.943 62.934-21.009 41.926-83.943z"/><path d="m263.422 58.203-41.926 83.942 62.934-21.008 41.926-83.943z"/><path d="m436.49.429-47.2 15.756-41.925 83.943 62.934-21.009 36.685-73.45c-1.451-4.344-6.149-6.69-10.494-5.24z"/></g><path d="m481.957 503.707h-418.29c-4.58 0-8.294-3.713-8.294-8.294v-232.218h422.294l12.584 8.294v223.925c0 4.579-3.713 8.293-8.294 8.293z" fill="#8bb3ea"/><path d="m58.989 453.945v-190.75l-16.587 8.294v232.218c0 4.58 3.713 8.293 8.294 8.293h431.262c4.58 0 8.293-3.713 8.293-8.293v-8.294h-389.795c-22.902 0-41.467-18.566-41.467-41.468z" fill="#739ad6"/><path d="m481.957 205.14h-439.555v66.348h447.849v-58.055c0-4.579-3.713-8.293-8.294-8.293z" fill="#eceaec"/><path d="m490.251 271.488h-58.055l-12.197-14.488-54.151 14.488h-66.348l-13.501-14.488-52.847 14.488h-66.348l-15.137-14.488-51.211 14.488h-41.467l-16.587-66.348h124.402l23.696 13.36 42.652-13.36h66.348l25 13.36 41.348-13.36h66.348l58.055 8.294z" fill="#eceaec"/><path d="m166.804 205.14-66.348 66.348h66.348l66.348-66.348z" fill="#5d5360"/><path d="m299.5 205.14-66.348 66.348h66.348l66.348-66.348z" fill="#5d5360"/><path d="m481.957 205.14h-49.761l-66.348 66.348h66.348l58.055-58.055c0-4.58-3.713-8.293-8.294-8.293z" fill="#5d5360"/><path d="m42.402 205.14h16.587v66.348h-16.587z" fill="#dad8db"/><path d="m35.286 134.359.898 20.466 12.232 18.868 26.204-52.464z" fill="#5d5360"/><path d="m35.286 134.359-7.867 2.626c-4.345 1.45-6.691 6.148-5.241 10.493l15.756 47.201 10.481-20.986z" fill="#4b3f4e"/><path d="m58.989 246.608c-13.741 0-24.881-11.139-24.881-24.88v-24.881c0-13.741 11.139-24.88 24.88-24.88 13.741 0 24.88 11.139 24.88 24.88v24.881c.001 13.741-11.138 24.88-24.879 24.88z" fill="#c8c5c9"/><path d="m423.903 362.717h-315.153c-4.58 0-8.294-3.713-8.294-8.294v-8.293c0-4.58 3.713-8.293 8.294-8.293h315.153c4.58 0 8.293 3.713 8.293 8.293v8.293c0 4.581-3.713 8.294-8.293 8.294z" fill="#fff"/><path d="m423.903 437.358h-315.153c-4.58 0-8.294-3.713-8.294-8.294v-8.293c0-4.58 3.713-8.293 8.294-8.293h315.153c4.58 0 8.293 3.713 8.293 8.293v8.293c0 4.581-3.713 8.294-8.293 8.294z" fill="#fff"/></svg>