<svg id="Capa_1" enable-background="new 0 0 512 512" height="512" viewBox="0 0 512 512" width="512" xmlns="http://www.w3.org/2000/svg"><path d="m115.613 417.032c-4.561 0-8.258-3.697-8.258-8.258v-33.032l16.516-16.516v49.548c0 4.561-3.697 8.258-8.258 8.258z" fill="#ffa95f"/><path d="m396.387 417.032c-4.561 0-8.258-3.697-8.258-8.258v-49.548l16.516 16.516v33.032c0 4.561-3.697 8.258-8.258 8.258z" fill="#ffa95f"/><path d="m280.774 316.011h-49.548v-22.85l24.774-8.627 24.774 8.627z" fill="#5d5360"/><path d="m231.226 260.129h49.548v33.032h-49.548z" fill="#4b3f4e"/><path d="m8.258 417.032c-4.561 0-8.258-3.697-8.258-8.258v-33.032l16.516-16.516v49.548c0 4.561-3.697 8.258-8.258 8.258z" fill="#4b3f4e"/><path d="m49.548 417.032c-4.561 0-8.258-3.697-8.258-8.258v-49.548l16.516 16.516v33.032c0 4.561-3.697 8.258-8.258 8.258z" fill="#4b3f4e"/><path d="m57.806 359.226-49.548 6.774v-262.774c0-4.561 3.697-8.258 8.258-8.258h33.032c4.561 0 8.258 3.697 8.258 8.258z" fill="#6f6571"/><path d="m396.387 268.387h-272.516c-4.561 0-8.258-3.697-8.258-8.258v-156.903c0-4.561 3.697-8.258 8.258-8.258h272.516c4.561 0 8.258 3.697 8.258 8.258v156.903c0 4.561-3.697 8.258-8.258 8.258z" fill="#6f6571"/><path d="m404.645 359.226-289.032 9.774v-51.065c0-4.561 3.697-8.258 8.258-8.258h272.516c4.561 0 8.258 3.697 8.258 8.258z" fill="#ffe07d"/><path d="m33.032 359.226c-9.122 0-16.516-7.395-16.516-16.516v-247.742h-8.258c-4.561 0-8.258 3.697-8.258 8.258v272.516h57.806v-16.516z" fill="#5d5360"/><circle cx="28.903" cy="156.903" fill="#4b3f4e" r="28.903"/><circle cx="28.903" cy="247.742" fill="#4b3f4e" r="28.903"/><g fill="#5d5360"><circle cx="28.903" cy="156.903" r="12.387"/><circle cx="28.903" cy="247.742" r="12.387"/><path d="m140.387 260.129c-9.122 0-16.516-7.395-16.516-16.516v-8.258l7.629-57.355-7.629-58.258v-24.774h-8.258c-4.561 0-8.258 3.697-8.258 8.258v165.161c0 4.561 3.697 8.258 8.258 8.258h280.774c4.561 0 8.258-3.697 8.258-8.258v-8.258z"/></g><path d="m379.871 235.355h-239.484c-4.561 0-8.258-3.697-8.258-8.258v-107.355c0-4.561 3.697-8.258 8.258-8.258h239.484c4.561 0 8.258 3.697 8.258 8.258v107.355c0 4.561-3.697 8.258-8.258 8.258z" fill="#ccf49f"/><path d="m173.419 227.097c-18.243 0-33.032-14.789-33.032-33.032v-82.581h-8.258c-4.561 0-8.258 3.697-8.258 8.258v115.613c0 4.561 3.697 8.258 8.258 8.258h247.742c4.561 0 8.258-3.697 8.258-8.258v-8.258z" fill="#b3e59f"/><path d="m264.258 359.226v-49.548h-16.516v49.548h-107.355c-9.121 0-16.516-7.395-16.516-16.516v-33.032h-8.258c-4.561 0-8.258 3.697-8.258 8.258v57.806h140.388l8.383-3.867 8.133 3.867h140.387v-16.516z" fill="#ffd064"/><path d="m247.742 359.226h16.516v16.516h-16.516z" fill="#ffa95f"/><path d="m222.968 350.968c-4.561 0-8.258-3.697-8.258-8.258 0-4.561 3.697-8.258 8.258-8.258 4.561 0 8.258 3.697 8.258 8.258 0 4.56-3.697 8.258-8.258 8.258z" fill="#fff"/><path d="m289.032 350.968c-4.561 0-8.258-3.697-8.258-8.258 0-4.561 3.697-8.258 8.258-8.258 4.561 0 8.258 3.697 8.258 8.258 0 4.56-3.697 8.258-8.258 8.258z" fill="#fff"/><path d="m462.452 417.032c-4.561 0-8.258-3.697-8.258-8.258v-33.032l16.516-16.516v49.548c0 4.561-3.698 8.258-8.258 8.258z" fill="#4b3f4e"/><path d="m503.742 417.032c-4.561 0-8.258-3.697-8.258-8.258v-49.548l16.516 16.516v33.032c0 4.561-3.697 8.258-8.258 8.258z" fill="#4b3f4e"/><path d="m512 359.226-49.548 6.774v-262.774c0-4.561 3.697-8.258 8.258-8.258h33.032c4.561 0 8.258 3.697 8.258 8.258z" fill="#6f6571"/><path d="m487.226 359.226c-9.122 0-16.516-7.395-16.516-16.516v-247.742h-8.258c-4.561 0-8.258 3.697-8.258 8.258v272.516h57.806v-16.516z" fill="#5d5360"/><circle cx="483.097" cy="156.903" fill="#4b3f4e" r="28.903"/><circle cx="483.097" cy="247.742" fill="#4b3f4e" r="28.903"/><circle cx="483.097" cy="156.903" fill="#5d5360" r="12.387"/><circle cx="483.097" cy="247.742" fill="#5d5360" r="12.387"/></svg>