<svg id="Capa_1" enable-background="new 0 0 512 512" height="512" viewBox="0 0 512 512" width="512" xmlns="http://www.w3.org/2000/svg"><path d="m371.613 115.613c-14.37 0-28.237 2.159-41.292 6.171l-99.095 134.216 99.097 134.214c13.055 4.011 26.92 6.173 41.29 6.173 77.534 0 140.387-62.853 140.387-140.387s-62.853-140.387-140.387-140.387zm.121 165.161c-13.694 0-24.895-11.093-24.895-24.774s10.96-24.774 24.653-24.774h.242c13.694 0 24.774 11.093 24.774 24.774s-11.081 24.774-24.774 24.774z" fill="#6f6571"/><path d="m371.613 148.645c-14.627 0-28.571 2.961-41.29 8.282v-35.141c-26.089 8.019-48.902 23.476-66.065 43.842v180.744c17.162 20.366 39.975 35.823 66.065 43.842v-35.141c12.72 5.321 26.663 8.282 41.29 8.282 59.194 0 107.355-48.157 107.355-107.355s-48.162-107.355-107.355-107.355zm0 198.194c-14.875 0-28.886-3.663-41.29-10.028v-161.622c12.405-6.365 26.416-10.028 41.29-10.028 50.089 0 90.839 40.75 90.839 90.839s-40.75 90.839-90.839 90.839z" fill="#5d5360"/><path d="m371.613 198.194c-16.175 0-30.798 6.644-41.29 17.352l-8.656 40.454 8.656 40.455c10.492 10.708 25.115 17.352 41.29 17.352 31.925 0 57.807-25.881 57.807-57.806-.001-31.927-25.882-57.807-57.807-57.807zm.04 66.064c-4.542 0-8.258-3.68-8.258-8.218s3.635-8.218 8.178-8.218h.08c4.542 0 8.218 3.68 8.218 8.218s-3.675 8.218-8.218 8.218z" fill="#ffe07d"/><path d="m305.548 404.645h-289.032c-4.561 0-8.258-3.697-8.258-8.258v-289.032c0-4.561 3.697-8.258 8.258-8.258h289.032c4.561 0 8.258 3.697 8.258 8.258v289.032c0 4.561-3.697 8.258-8.258 8.258z" fill="#ff8086"/><circle cx="156.903" cy="256" fill="#ffe07d" r="123.871"/><circle cx="156.903" cy="256" fill="#fff0af" r="107.355"/><path d="m214.508 186.923c-5.371-4.411-12.347-6.165-19.194-4.79l-44.887 8.976c-15.387 3.081-26.556 16.702-26.556 32.391v70.194h16.516v-70.194c0-7.843 5.589-14.657 13.282-16.198l44.887-8.976c2.669-.528 4.581.633 5.476 1.371.903.738 2.419 2.383 2.419 5.101v72.379h16.516v-72.379c.001-6.951-3.08-13.467-8.459-17.875z" fill="#e5646e"/><path d="m49.548 396.387c-18.243 0-33.032-14.789-33.032-33.032v-264.258h-8.258c-4.561 0-8.258 3.697-8.258 8.258v297.29c0 4.561 3.697 8.258 8.258 8.258h297.29c4.561 0 8.258-3.697 8.258-8.258v-8.258z" fill="#e5646e"/><ellipse cx="111.484" cy="293.694" fill="#ff8086" rx="28.903" ry="20.645"/><ellipse cx="194.065" cy="277.178" fill="#ff8086" rx="28.903" ry="20.645"/><path d="m330.323 215.545c-10.206 10.424-16.516 24.714-16.516 40.455 0 15.74 6.31 30.03 16.516 40.455z" fill="#ffd064"/></svg>